<?xml version="1.0" encoding="UTF-8"?>
<svg version="1.1" xmlns="http://www.w3.org/2000/svg" width="512" height="512">
<path d="M0 0 C32.33700673 0.53011486 63.3675038 12.01875154 93 24 C94.10633789 24.4429541 95.21267578 24.8859082 96.35253906 25.34228516 C97.4350293 25.78233887 98.51751953 26.22239258 99.6328125 26.67578125 C101.10451904 27.27193237 101.10451904 27.27193237 102.60595703 27.88012695 C105 29 105 29 107 31 C108.40206712 38.49871521 109.25978246 49.01491054 106.05664062 56.08105469 C103.3166717 60.02562658 99.63614117 62.91022201 96 66 C94.39490032 67.88113593 92.82995205 69.79747429 91.3125 71.75 C88.05366807 75.79885179 84.6296785 79.48494066 80.90234375 83.1015625 C78.36168804 85.63700126 76.05351051 88.34591635 73.71484375 91.06640625 C72.03995701 92.95494597 70.30052413 94.73155648 68.5 96.5 C66.20970105 98.75011827 64.07161261 101.04788712 62 103.5 C56.08839896 110.38093978 49.45059056 116.63027509 43 123 C42.34 122.67 41.68 122.34 41 122 C40.62109375 120.03125 40.62109375 120.03125 40.4375 117.5 C40.12321948 113.34912521 39.61037126 109.30254936 38.890625 105.203125 C39.20661126 98.83825893 44.0778239 94.43455119 48.25 90.125 C49.43050405 88.88098269 50.61019953 87.63619755 51.7890625 86.390625 C52.35012695 85.80087891 52.91119141 85.21113281 53.48925781 84.60351562 C55.25009438 82.73454753 56.94925964 80.82049369 58.625 78.875 C62.3696863 74.53414473 66.26635855 70.33523545 70.15625 66.125 C73.50459151 62.47579302 76.7509954 58.73754106 80 55 C25.15916366 66.61310829 -28.48261921 86.86817768 -72 123 C-72.55671387 123.4552002 -73.11342773 123.91040039 -73.68701172 124.37939453 C-87.37177893 135.59443717 -100.23739972 147.9258304 -111 162 C-111.90412489 163.12956551 -112.8091296 164.25842715 -113.71484375 165.38671875 C-129.86990166 185.8391945 -150.6051425 215.73122273 -151.625 242.375 C-151.66367188 243.20644531 -151.70234375 244.03789062 -151.7421875 244.89453125 C-151.83574246 246.92935156 -151.91892713 248.96464416 -152 251 C-152.66 251 -153.32 251 -154 251 C-159.43499149 216.54916685 -143.61957357 184.10866507 -124.00610352 156.72827148 C-119.54825306 150.62925927 -114.924459 144.7309035 -110 139 C-109.12618155 137.94388378 -108.25387297 136.88651709 -107.3828125 135.828125 C-96.19774323 122.35621027 -83.92697025 109.65003608 -70 99 C-68.9996875 98.2059375 -67.999375 97.411875 -66.96875 96.59375 C-28.41440629 66.11593778 17.4001345 47.12275522 65 36 C62.95448785 33.95448785 61.90707941 33.45050079 59.25073242 32.50708008 C58.47779343 32.2295137 57.70485443 31.95194733 56.90849304 31.66596985 C56.06599503 31.37014511 55.22349701 31.07432037 54.35546875 30.76953125 C53.4758699 30.45602219 52.59627106 30.14251312 51.6900177 29.81950378 C49.81374375 29.15198016 47.936488 28.48721087 46.05834961 27.82495117 C43.26269551 26.8390189 40.46996733 25.8451833 37.67773438 24.84960938 C27.30258296 21.16230979 16.89696591 17.58709929 6.42631531 14.17939758 C5.59638565 13.90709824 4.76645599 13.63479889 3.91137695 13.35424805 C3.17804642 13.11594772 2.44471588 12.8776474 1.68916321 12.63212585 C0 12 0 12 -1 11 C-1.09823996 9.52351124 -1.12973519 8.04224583 -1.125 6.5625 C-1.12757813 5.75941406 -1.13015625 4.95632812 -1.1328125 4.12890625 C-1 2 -1 2 0 0 Z " fill="#7b7b7b" transform="translate(280,130)" />
</svg>
